<svg xmlns="http://www.w3.org/2000/svg" xmlns:xlink="http://www.w3.org/1999/xlink" width="100%" height="100%" version="1.1" viewBox="0 0 12000 4000" xml:space="preserve" style="fill-rule:evenodd;clip-rule:evenodd;stroke-linejoin:round;stroke-miterlimit:2"><g><g><path d="M2909.5,569.48C2909.5,335.944 2719.9,146.341 2486.36,146.341L511.714,146.341C278.177,146.341 88.575,335.944 88.575,569.48L88.575,2544.13C88.575,2777.66 278.177,2967.27 511.714,2967.27L2486.36,2967.27C2719.9,2967.27 2909.5,2777.66 2909.5,2544.13L2909.5,569.48Z" style="fill:#fff" transform="matrix(0.81452,0,0,0.81452,-68.21,650.8) matrix(1.06348,0,0,1.06348,223.767,353.113)"/></g><g><path d="M936,562.5C936,489.371 876.629,430 803.5,430L538.5,430C465.371,430 406,489.371 406,562.5L406,827.5C406,900.629 465.371,960 538.5,960L803.5,960C876.629,960 936,900.629 936,827.5L936,562.5Z" style="fill:#6f2dbd" transform="matrix(0.81452,0,0,0.81452,-68.21,650.8) matrix(1.32075,0,0,1.32075,-18.2614,140.82)"/></g><g><path d="M1026,1244.22C1026,1148.07 965.06,1070 890,1070L618,1070C542.94,1070 482,1148.07 482,1244.22L482,2687.78C482,2783.93 542.94,2862 618,2862L890,2862C965.06,2862 1026,2783.93 1026,2687.78L1026,1244.22Z" style="fill:#dc6bad" transform="matrix(0.81452,0,0,0.81452,-68.21,650.8) matrix(1.28676,0,0,1.00446,-102.256,433.967)"/></g><g><path d="M2806,520.4C2806,432.977 2735.02,362 2647.6,362L1380.4,362C1292.98,362 1222,432.977 1222,520.4L1222,1787.6C1222,1875.02 1292.98,1946 1380.4,1946L2647.6,1946C2735.02,1946 2806,1875.02 2806,1787.6L2806,520.4Z" style="fill:#06b6d4" transform="matrix(0.81452,0,0,0.81452,-68.21,650.8) matrix(1.13636,0,0,1.13636,-70.6713,297.38)"/></g><g><path d="M2810,2361C2810,2279.87 2741.34,2214 2656.78,2214L1387.22,2214C1302.66,2214 1234,2279.87 1234,2361L1234,2655C1234,2736.13 1302.66,2802 1387.22,2802L2656.78,2802C2741.34,2802 2810,2736.13 2810,2655L2810,2361Z" style="fill:#ffd4ca" transform="matrix(0.81452,0,0,0.81452,-68.21,650.8) matrix(1.14213,0,0,1.19048,-91.4258,-26.9702)"/></g><g transform="matrix(0.81452,0,0,0.81452,-68.21,650.8) matrix(0.91047,0,0,0.91047,377.904,551.588)"><circle cx="2021" cy="1161.11" r="659" style="fill:#fff"/></g></g><g><g><path d="M0.07,-0L0.07,-0.496L0.196,-0.496L0.196,-0L0.07,-0ZM0.133,-0.554C0.11,-0.554 0.091,-0.561 0.076,-0.576C0.06,-0.591 0.052,-0.61 0.052,-0.634C0.052,-0.658 0.06,-0.677 0.076,-0.692C0.091,-0.707 0.11,-0.714 0.133,-0.714C0.156,-0.714 0.176,-0.707 0.191,-0.692C0.206,-0.677 0.214,-0.658 0.214,-0.634C0.214,-0.61 0.206,-0.591 0.191,-0.576C0.176,-0.561 0.156,-0.554 0.133,-0.554Z" style="fill:#fff;fill-rule:nonzero" transform="matrix(35.6413,0,0,35.6413,-134595,-63965.5) matrix(50.2694,0,0,50.2694,3853.74,1882.35)"/></g><g><path d="M0.07,-0L0.07,-0.496L0.194,-0.496L0.194,-0.442L0.212,-0.442C0.221,-0.459 0.235,-0.473 0.255,-0.486C0.275,-0.498 0.301,-0.504 0.334,-0.504C0.369,-0.504 0.398,-0.497 0.419,-0.484C0.44,-0.47 0.457,-0.452 0.468,-0.43L0.486,-0.43C0.497,-0.451 0.513,-0.469 0.534,-0.483C0.555,-0.497 0.584,-0.504 0.622,-0.504C0.653,-0.504 0.681,-0.498 0.706,-0.485C0.731,-0.471 0.75,-0.452 0.765,-0.426C0.781,-0.399 0.788,-0.366 0.788,-0.326L0.788,-0L0.662,-0L0.662,-0.317C0.662,-0.344 0.655,-0.365 0.641,-0.379C0.627,-0.392 0.607,-0.399 0.582,-0.399C0.553,-0.399 0.531,-0.39 0.516,-0.372C0.5,-0.353 0.492,-0.327 0.492,-0.293L0.492,-0L0.366,-0L0.366,-0.317C0.366,-0.344 0.359,-0.365 0.345,-0.379C0.331,-0.392 0.311,-0.399 0.286,-0.399C0.257,-0.399 0.235,-0.39 0.22,-0.372C0.204,-0.353 0.196,-0.327 0.196,-0.293L0.196,-0L0.07,-0Z" style="fill:#fff;fill-rule:nonzero" transform="matrix(35.6413,0,0,35.6413,-134595,-63965.5) matrix(50.2694,0,0,50.2694,3867.11,1882.35)"/></g><g><path d="M0.046,-0.246L0.046,-0.262C0.046,-0.314 0.056,-0.359 0.077,-0.396C0.098,-0.433 0.125,-0.461 0.16,-0.481C0.194,-0.5 0.231,-0.51 0.272,-0.51C0.317,-0.51 0.352,-0.502 0.375,-0.486C0.398,-0.47 0.415,-0.453 0.426,-0.436L0.444,-0.436L0.444,-0.496L0.568,-0.496L0.568,0.088C0.568,0.122 0.558,0.149 0.538,0.169C0.518,0.19 0.491,0.2 0.458,0.2L0.126,0.2L0.126,0.09L0.414,0.09C0.433,0.09 0.442,0.08 0.442,0.06L0.442,-0.069L0.424,-0.069C0.417,-0.058 0.408,-0.048 0.396,-0.037C0.384,-0.025 0.368,-0.016 0.348,-0.009C0.328,-0.002 0.303,0.002 0.272,0.002C0.231,0.002 0.194,-0.008 0.16,-0.028C0.125,-0.047 0.098,-0.076 0.077,-0.113C0.056,-0.15 0.046,-0.194 0.046,-0.246ZM0.308,-0.108C0.347,-0.108 0.379,-0.12 0.405,-0.145C0.431,-0.17 0.444,-0.204 0.444,-0.249L0.444,-0.259C0.444,-0.304 0.431,-0.339 0.406,-0.364C0.38,-0.388 0.347,-0.4 0.308,-0.4C0.269,-0.4 0.237,-0.388 0.211,-0.364C0.185,-0.339 0.172,-0.304 0.172,-0.259L0.172,-0.249C0.172,-0.204 0.185,-0.17 0.211,-0.145C0.237,-0.12 0.269,-0.108 0.308,-0.108Z" style="fill:#fff;fill-rule:nonzero" transform="matrix(35.6413,0,0,35.6413,-134595,-63965.5) matrix(50.2694,0,0,50.2694,3910.04,1882.35)"/></g><g transform="matrix(35.6413,0,0,35.6413,-134595,-63965.5) matrix(50.2694,0,0,50.2694,3942.11,1882.35)"><rect width=".126" height=".7" x=".07" y="-.7" style="fill:#fff;fill-rule:nonzero"/></g><g><path d="M0.224,0.014C0.189,0.014 0.157,0.008 0.129,-0.005C0.101,-0.017 0.079,-0.035 0.063,-0.059C0.046,-0.082 0.038,-0.111 0.038,-0.145C0.038,-0.179 0.046,-0.207 0.063,-0.231C0.079,-0.254 0.102,-0.271 0.131,-0.282C0.16,-0.294 0.193,-0.3 0.23,-0.3L0.366,-0.3L0.366,-0.328C0.366,-0.351 0.359,-0.371 0.344,-0.386C0.329,-0.401 0.306,-0.408 0.274,-0.408C0.243,-0.408 0.219,-0.401 0.204,-0.387C0.189,-0.372 0.179,-0.354 0.174,-0.331L0.058,-0.37C0.066,-0.395 0.079,-0.419 0.097,-0.44C0.114,-0.461 0.138,-0.477 0.168,-0.491C0.197,-0.503 0.233,-0.51 0.276,-0.51C0.341,-0.51 0.393,-0.494 0.431,-0.461C0.469,-0.428 0.488,-0.381 0.488,-0.319L0.488,-0.134C0.488,-0.114 0.497,-0.104 0.516,-0.104L0.556,-0.104L0.556,-0L0.472,-0C0.447,-0 0.427,-0.006 0.411,-0.018C0.395,-0.03 0.387,-0.046 0.387,-0.066L0.387,-0.067L0.368,-0.067C0.365,-0.059 0.359,-0.049 0.35,-0.035C0.341,-0.023 0.326,-0.011 0.306,-0.001C0.286,0.009 0.259,0.014 0.224,0.014ZM0.246,-0.088C0.281,-0.088 0.31,-0.098 0.333,-0.117C0.355,-0.137 0.366,-0.163 0.366,-0.196L0.366,-0.206L0.239,-0.206C0.216,-0.206 0.197,-0.201 0.184,-0.191C0.171,-0.181 0.164,-0.167 0.164,-0.149C0.164,-0.131 0.171,-0.116 0.185,-0.105C0.199,-0.094 0.219,-0.088 0.246,-0.088Z" style="fill:#fff;fill-rule:nonzero" transform="matrix(35.6413,0,0,35.6413,-134595,-63965.5) matrix(50.2694,0,0,50.2694,3955.48,1882.35)"/></g><g><path d="M0.368,0.014C0.323,0.014 0.289,0.006 0.265,-0.009C0.241,-0.024 0.223,-0.041 0.212,-0.06L0.194,-0.06L0.194,-0L0.07,-0L0.07,-0.7L0.196,-0.7L0.196,-0.439L0.214,-0.439C0.221,-0.451 0.231,-0.462 0.244,-0.473C0.256,-0.484 0.272,-0.493 0.293,-0.5C0.313,-0.506 0.338,-0.51 0.368,-0.51C0.408,-0.51 0.445,-0.5 0.479,-0.481C0.513,-0.461 0.54,-0.432 0.561,-0.394C0.582,-0.356 0.592,-0.31 0.592,-0.256L0.592,-0.24C0.592,-0.186 0.582,-0.14 0.561,-0.102C0.54,-0.064 0.513,-0.035 0.479,-0.016C0.445,0.004 0.408,0.014 0.368,0.014ZM0.33,-0.096C0.369,-0.096 0.401,-0.109 0.427,-0.134C0.453,-0.159 0.466,-0.195 0.466,-0.243L0.466,-0.253C0.466,-0.301 0.453,-0.338 0.428,-0.363C0.402,-0.388 0.369,-0.4 0.33,-0.4C0.291,-0.4 0.259,-0.388 0.233,-0.363C0.207,-0.338 0.194,-0.301 0.194,-0.253L0.194,-0.243C0.194,-0.195 0.207,-0.159 0.233,-0.134C0.259,-0.109 0.291,-0.096 0.33,-0.096Z" style="fill:#fff;fill-rule:nonzero" transform="matrix(35.6413,0,0,35.6413,-134595,-63965.5) matrix(50.2694,0,0,50.2694,3984.54,1882.35)"/></g><g><path d="M0.276,0.014C0.211,0.014 0.158,-0 0.117,-0.028C0.076,-0.056 0.051,-0.096 0.042,-0.148L0.158,-0.178C0.163,-0.155 0.171,-0.136 0.182,-0.123C0.193,-0.11 0.206,-0.1 0.223,-0.095C0.239,-0.089 0.257,-0.086 0.276,-0.086C0.305,-0.086 0.327,-0.091 0.341,-0.102C0.355,-0.112 0.362,-0.125 0.362,-0.14C0.362,-0.155 0.355,-0.167 0.342,-0.175C0.329,-0.184 0.307,-0.191 0.278,-0.196L0.25,-0.201C0.215,-0.208 0.184,-0.217 0.155,-0.229C0.126,-0.24 0.103,-0.256 0.086,-0.277C0.069,-0.298 0.06,-0.324 0.06,-0.357C0.06,-0.406 0.078,-0.444 0.114,-0.47C0.15,-0.497 0.197,-0.51 0.256,-0.51C0.311,-0.51 0.357,-0.498 0.394,-0.473C0.431,-0.448 0.455,-0.416 0.466,-0.376L0.349,-0.34C0.344,-0.365 0.333,-0.383 0.317,-0.394C0.3,-0.405 0.28,-0.41 0.256,-0.41C0.232,-0.41 0.214,-0.406 0.201,-0.398C0.188,-0.389 0.182,-0.378 0.182,-0.363C0.182,-0.347 0.189,-0.335 0.202,-0.328C0.215,-0.32 0.233,-0.314 0.256,-0.31L0.284,-0.305C0.321,-0.298 0.355,-0.29 0.386,-0.279C0.416,-0.268 0.44,-0.252 0.458,-0.232C0.475,-0.211 0.484,-0.184 0.484,-0.149C0.484,-0.097 0.465,-0.057 0.428,-0.029C0.39,-0 0.339,0.014 0.276,0.014Z" style="fill:#fff;fill-rule:nonzero" transform="matrix(35.6413,0,0,35.6413,-134595,-63965.5) matrix(50.2694,0,0,50.2694,4016.61,1882.35)"/></g><g><path d="M0.15,0.014C0.123,0.014 0.1,0.005 0.082,-0.013C0.063,-0.03 0.054,-0.053 0.054,-0.081C0.054,-0.109 0.063,-0.132 0.082,-0.15C0.1,-0.167 0.123,-0.176 0.15,-0.176C0.177,-0.176 0.199,-0.167 0.217,-0.15C0.235,-0.132 0.244,-0.109 0.244,-0.081C0.244,-0.053 0.235,-0.03 0.217,-0.013C0.199,0.005 0.177,0.014 0.15,0.014Z" style="fill:#fff;fill-rule:nonzero" transform="matrix(35.6413,0,0,35.6413,-134595,-63965.5) matrix(50.2694,0,0,50.2694,4042.95,1882.35)"/></g><g><path d="M0.07,-0L0.07,-0.496L0.196,-0.496L0.196,-0L0.07,-0ZM0.133,-0.554C0.11,-0.554 0.091,-0.561 0.076,-0.576C0.06,-0.591 0.052,-0.61 0.052,-0.634C0.052,-0.658 0.06,-0.677 0.076,-0.692C0.091,-0.707 0.11,-0.714 0.133,-0.714C0.156,-0.714 0.176,-0.707 0.191,-0.692C0.206,-0.677 0.214,-0.658 0.214,-0.634C0.214,-0.61 0.206,-0.591 0.191,-0.576C0.176,-0.561 0.156,-0.554 0.133,-0.554Z" style="fill:#fff;fill-rule:nonzero" transform="matrix(35.6413,0,0,35.6413,-134595,-63965.5) matrix(50.2694,0,0,50.2694,4057.93,1882.35)"/></g><g><path d="M0.306,0.014C0.257,0.014 0.212,0.004 0.173,-0.016C0.134,-0.036 0.103,-0.065 0.08,-0.103C0.057,-0.141 0.046,-0.187 0.046,-0.24L0.046,-0.256C0.046,-0.309 0.057,-0.355 0.08,-0.393C0.103,-0.431 0.134,-0.46 0.173,-0.48C0.212,-0.5 0.257,-0.51 0.306,-0.51C0.355,-0.51 0.4,-0.5 0.439,-0.48C0.478,-0.46 0.509,-0.431 0.532,-0.393C0.555,-0.355 0.566,-0.309 0.566,-0.256L0.566,-0.24C0.566,-0.187 0.555,-0.141 0.532,-0.103C0.509,-0.065 0.478,-0.036 0.439,-0.016C0.4,0.004 0.355,0.014 0.306,0.014ZM0.306,-0.098C0.345,-0.098 0.377,-0.111 0.402,-0.136C0.427,-0.161 0.44,-0.196 0.44,-0.243L0.44,-0.253C0.44,-0.3 0.428,-0.336 0.403,-0.361C0.378,-0.386 0.345,-0.398 0.306,-0.398C0.267,-0.398 0.235,-0.386 0.21,-0.361C0.185,-0.336 0.172,-0.3 0.172,-0.253L0.172,-0.243C0.172,-0.196 0.185,-0.161 0.21,-0.136C0.235,-0.111 0.267,-0.098 0.306,-0.098Z" style="fill:#fff;fill-rule:nonzero" transform="matrix(35.6413,0,0,35.6413,-134595,-63965.5) matrix(50.2694,0,0,50.2694,4071.3,1882.35)"/></g></g></svg>