<?xml version="1.0" encoding="UTF-8" standalone="no"?>
<!DOCTYPE svg PUBLIC "-//W3C//DTD SVG 1.1//EN"
 "http://www.w3.org/Graphics/SVG/1.1/DTD/svg11.dtd">
<!-- Generated by graphviz version 12.1.0 (20240811.2233)
 -->
<!-- Pages: 1 -->
<svg width="218pt" height="86pt"
 viewBox="0.00 0.00 218.16 85.62" xmlns="http://www.w3.org/2000/svg" xmlns:xlink="http://www.w3.org/1999/xlink">
<g id="graph0" class="graph" transform="scale(1 1) rotate(0) translate(4 81.62)">
<polygon fill="white" stroke="none" points="-4,4 -4,-81.62 214.16,-81.62 214.16,4 -4,4"/>
<!-- q0 -->
<g id="node1" class="node">
<title>q0</title>
<ellipse fill="none" stroke="black" cx="20.69" cy="-22.12" rx="20.69" ry="20.69"/>
<text text-anchor="middle" x="20.69" y="-17.92" font-family="Times,serif" font-size="14.00">q0</text>
</g>
<!-- q0&#45;&gt;q0 -->
<g id="edge1" class="edge">
<title>q0&#45;&gt;q0</title>
<path fill="none" stroke="black" d="M13.06,-41.63C11.89,-51.72 14.43,-60.82 20.69,-60.82 24.41,-60.82 26.82,-57.61 27.92,-52.89"/>
<polygon fill="black" stroke="black" points="31.41,-53.27 28.27,-43.15 24.41,-53.01 31.41,-53.27"/>
<text text-anchor="middle" x="20.69" y="-65.02" font-family="Times,serif" font-size="14.00">x</text>
</g>
<!-- q1 -->
<g id="node2" class="node">
<title>q1</title>
<ellipse fill="none" stroke="black" cx="105.08" cy="-22.12" rx="20.69" ry="20.69"/>
<text text-anchor="middle" x="105.08" y="-17.92" font-family="Times,serif" font-size="14.00">q1</text>
</g>
<!-- q0&#45;&gt;q1 -->
<g id="edge2" class="edge">
<title>q0&#45;&gt;q1</title>
<path fill="none" stroke="black" d="M41.64,-22.12C50.98,-22.12 62.33,-22.12 72.78,-22.12"/>
<polygon fill="black" stroke="black" points="72.52,-25.62 82.52,-22.12 72.52,-18.62 72.52,-25.62"/>
<text text-anchor="middle" x="62.89" y="-26.32" font-family="Times,serif" font-size="14.00">5</text>
</g>
<!-- q1&#45;&gt;q0 -->
<g id="edge3" class="edge">
<title>q1&#45;&gt;q0</title>
<path fill="none" stroke="black" d="M88.88,-9.12C80.47,-3.47 69.66,1.32 59.39,-1.32 55.58,-2.3 51.75,-3.76 48.06,-5.45"/>
<polygon fill="black" stroke="black" points="46.74,-2.19 39.53,-9.96 50,-8.38 46.74,-2.19"/>
<text text-anchor="middle" x="62.89" y="-5.52" font-family="Times,serif" font-size="14.00">x</text>
</g>
<!-- q1&#45;&gt;q1 -->
<g id="edge5" class="edge">
<title>q1&#45;&gt;q1</title>
<path fill="none" stroke="black" d="M97.45,-41.63C96.27,-51.72 98.82,-60.82 105.08,-60.82 108.8,-60.82 111.21,-57.61 112.3,-52.89"/>
<polygon fill="black" stroke="black" points="115.79,-53.27 112.66,-43.15 108.8,-53.01 115.79,-53.27"/>
<text text-anchor="middle" x="105.08" y="-65.02" font-family="Times,serif" font-size="14.00">5</text>
</g>
<!-- q2 -->
<g id="node3" class="node">
<title>q2</title>
<ellipse fill="none" stroke="black" cx="189.47" cy="-22.12" rx="20.69" ry="20.69"/>
<text text-anchor="middle" x="189.47" y="-17.92" font-family="Times,serif" font-size="14.00">q2</text>
</g>
<!-- q1&#45;&gt;q2 -->
<g id="edge4" class="edge">
<title>q1&#45;&gt;q2</title>
<path fill="none" stroke="black" d="M126.02,-22.12C135.37,-22.12 146.72,-22.12 157.16,-22.12"/>
<polygon fill="black" stroke="black" points="156.91,-25.62 166.91,-22.12 156.91,-18.62 156.91,-25.62"/>
<text text-anchor="middle" x="147.27" y="-26.32" font-family="Times,serif" font-size="14.00">6</text>
</g>
</g>
</svg>
